<?xml version="1.0" encoding="UTF-8"?>
<svg id="Capa_2" data-name="Capa 2" xmlns="http://www.w3.org/2000/svg" viewBox="0 0 23.32 23.32">
  <defs>
    <style>
      .cls-1 {
        fill: #fff;
      }
    </style>
  </defs>
  <g id="Capa_1-2" data-name="Capa 1">
    <g>
      <path class="cls-1" d="M19.19,23.32H4.12c-2.27,0-4.12-1.85-4.12-4.12V4.12C0,1.85,1.85,0,4.12,0h15.07c2.27,0,4.12,1.85,4.12,4.12v15.07c0,2.27-1.85,4.12-4.12,4.12ZM4.12,.6C2.18,.6,.6,2.18,.6,4.12v15.07c0,1.94,1.58,3.52,3.52,3.52h15.07c1.94,0,3.52-1.58,3.52-3.52V4.12c0-1.94-1.58-3.52-3.52-3.52H4.12Z"/>
      <g>
        <path class="cls-1" d="M11.67,5.28H7.38c-.57,0-.86,.69-.45,1.1l4.82,4.82c.25,.25,.25,.66,0,.91l-4.82,4.82c-.4,.4-.12,1.1,.45,1.1h4.29c.34,0,.67-.14,.91-.38l5.54-5.54c.25-.25,.25-.66,0-.91l-5.54-5.54c-.24-.24-.57-.38-.91-.38Z"/>
        <g>
          <path class="cls-1" d="M17.59,16.6c.39,0,.72,.32,.72,.72,0,.39-.32,.72-.72,.72-.39,0-.72-.32-.71-.72,0-.39,.32-.71,.71-.71Zm0,.15c-.31,0-.57,.26-.57,.57,0,.31,.25,.57,.57,.57,.31,0,.57-.26,.57-.57,0-.31-.26-.57-.57-.57Z"/>
          <path class="cls-1" d="M17.78,17.37s.05,.1,.08,.15c.02,.03,.04,.07,.05,.1,.02,.03,0,.04-.03,.05-.04,0-.08,0-.11,0-.02,0-.03,0-.04-.02-.04-.07-.07-.15-.11-.22,0-.02-.02-.03-.04-.03-.02,0-.04,0-.06,0,0,.03,0,.06,0,.09,0,.05,0,.1,0,.15,0,.02-.01,.04-.04,.04-.03,0-.07,0-.1,0-.02,0-.03,0-.03-.03,0-.22,0-.45,0-.67,0-.02,0-.03,.03-.03,.1,0,.21,0,.31,0,.1,0,.19,.08,.21,.18,.03,.1-.02,.2-.1,.25,0,0-.01,0-.02,.01Zm-.26-.13c.06,0,.12,0,.18,0,.04,0,.07-.04,.07-.09,0-.04-.03-.08-.07-.08-.06,0-.12,0-.18,0v.17Z"/>
        </g>
      </g>
    </g>
  </g>
</svg>