<?xml version="1.0" encoding="UTF-8"?>
<svg id="Capa_2" data-name="Capa 2" xmlns="http://www.w3.org/2000/svg" viewBox="0 0 73.92 23.32">
  <defs>
    <style>
      .cls-1 {
        fill: #fff;
      }
    </style>
  </defs>
  <g id="Capa_1-2" data-name="Capa 1">
    <g>
      <g>
        <g>
          <path class="cls-1" d="M28.06,13.19c-.1,0-.18-.03-.24-.1-.06-.06-.09-.14-.09-.23V4.5c0-.09,.03-.17,.09-.23,.06-.06,.14-.09,.24-.09h1.76c.1,0,.18,.03,.24,.09,.06,.06,.09,.14,.09,.23v6.74h4.04c.1,0,.18,.03,.24,.1,.06,.06,.09,.14,.09,.24v1.29c0,.09-.03,.16-.09,.23-.06,.06-.14,.1-.24,.1h-6.13Z"/>
          <path class="cls-1" d="M39.1,13.32c-1.05,0-1.88-.27-2.51-.82-.62-.55-.95-1.36-.97-2.44v-.45c.03-.68,.18-1.26,.47-1.74,.29-.48,.69-.85,1.2-1.11,.51-.25,1.11-.38,1.79-.38,.78,0,1.43,.15,1.94,.45,.51,.3,.9,.71,1.15,1.22,.26,.51,.39,1.1,.39,1.76v.31c0,.09-.03,.17-.09,.23-.06,.06-.14,.09-.24,.09h-4.27v.09c0,.25,.06,.48,.14,.68,.08,.21,.21,.37,.37,.49,.16,.12,.37,.18,.61,.18,.18,0,.33-.03,.45-.08,.12-.06,.22-.12,.3-.19,.08-.07,.14-.14,.19-.19,.08-.09,.14-.15,.19-.17,.05-.02,.13-.03,.23-.03h1.65c.09,0,.16,.03,.22,.08,.06,.05,.08,.12,.07,.21,0,.15-.08,.32-.23,.53-.14,.21-.35,.41-.62,.61-.27,.2-.61,.37-1.02,.5-.41,.13-.88,.19-1.43,.19Zm-1.13-4.16h2.25v-.03c0-.28-.04-.53-.13-.73-.08-.2-.21-.36-.39-.47-.17-.11-.38-.17-.62-.17s-.43,.06-.6,.17c-.17,.11-.3,.27-.39,.47-.09,.2-.13,.44-.13,.73v.03Z"/>
          <path class="cls-1" d="M44,15.63c-.1,0-.18-.03-.24-.1-.06-.06-.09-.14-.09-.23V6.82c0-.09,.03-.17,.09-.23,.06-.06,.14-.09,.24-.09h1.51c.09,0,.17,.03,.23,.09,.07,.06,.1,.14,.1,.23v.46c.21-.26,.49-.47,.83-.65,.34-.18,.75-.26,1.24-.26,.44,0,.84,.07,1.17,.2,.34,.13,.63,.33,.87,.59,.24,.26,.43,.57,.57,.94,.13,.37,.21,.79,.23,1.27,0,.17,.01,.33,.01,.48s0,.3-.01,.48c-.02,.46-.09,.88-.23,1.25-.13,.37-.32,.68-.56,.94-.24,.26-.53,.46-.87,.6-.34,.14-.74,.21-1.18,.21s-.82-.08-1.14-.23c-.32-.15-.59-.36-.81-.64v2.86c0,.09-.03,.16-.09,.23-.06,.06-.14,.1-.24,.1h-1.63Zm3.19-4.04c.3,0,.54-.06,.71-.18,.17-.12,.29-.28,.37-.49,.08-.21,.12-.43,.14-.68,.02-.27,.02-.53,0-.8-.02-.25-.06-.48-.14-.68-.08-.21-.2-.37-.37-.49-.17-.12-.4-.18-.71-.18-.28,0-.52,.06-.69,.19-.18,.12-.31,.29-.39,.48-.08,.2-.13,.41-.15,.64,0,.16-.01,.32-.01,.48s0,.32,.01,.49c0,.21,.06,.41,.15,.6,.09,.18,.22,.33,.4,.45,.18,.12,.4,.17,.68,.17Z"/>
          <path class="cls-1" d="M56,13.19c-.57,0-1.06-.09-1.47-.26-.41-.18-.73-.45-.95-.82-.22-.37-.33-.86-.33-1.45v-2.47h-1.04c-.1,0-.18-.03-.25-.09s-.1-.14-.1-.23v-1.04c0-.09,.03-.17,.1-.23s.15-.09,.25-.09h1.04v-2.12c0-.09,.03-.17,.1-.23,.07-.06,.14-.09,.23-.09h1.55c.1,0,.18,.03,.24,.09,.06,.06,.09,.14,.09,.23v2.12h1.77c.1,0,.18,.03,.25,.09,.07,.06,.1,.14,.1,.23v1.04c0,.09-.03,.17-.1,.23-.07,.06-.15,.09-.25,.09h-1.77v2.29c0,.29,.06,.52,.17,.69,.12,.17,.31,.26,.59,.26h1.03c.1,0,.18,.03,.24,.09,.06,.06,.09,.14,.09,.23v1.12c0,.09-.03,.16-.09,.23-.06,.06-.14,.1-.24,.1h-1.24Z"/>
          <path class="cls-1" d="M62.21,13.32c-.75,0-1.38-.12-1.89-.35-.51-.23-.9-.56-1.17-1-.27-.43-.42-.95-.46-1.55,0-.17-.01-.37-.01-.59s0-.41,.01-.57c.04-.61,.2-1.13,.48-1.56,.28-.43,.68-.76,1.19-.99,.51-.23,1.13-.35,1.85-.35s1.35,.12,1.86,.35c.51,.23,.91,.56,1.19,.99,.28,.43,.44,.95,.48,1.56,0,.16,.01,.35,.01,.57s0,.41-.01,.59c-.04,.6-.19,1.12-.46,1.55-.27,.43-.66,.77-1.17,1-.51,.23-1.14,.35-1.9,.35Zm0-1.57c.4,0,.69-.12,.87-.35,.18-.23,.29-.58,.31-1.04,0-.13,.01-.3,.01-.51s0-.39-.01-.51c-.03-.45-.13-.8-.31-1.04-.18-.24-.47-.35-.87-.35s-.67,.12-.86,.35c-.19,.24-.3,.58-.31,1.04,0,.13-.01,.3-.01,.51s0,.39,.01,.51c.02,.46,.12,.81,.31,1.04,.19,.23,.48,.35,.86,.35Zm-.77-6.21c-.14,0-.21-.07-.21-.21,0-.07,.02-.12,.07-.17l1.17-1.38c.09-.1,.16-.17,.23-.2,.06-.03,.15-.05,.27-.05h1.76c.17,0,.25,.09,.25,.26,0,.06-.02,.11-.07,.15l-1.77,1.4c-.07,.06-.14,.11-.21,.14-.07,.03-.17,.04-.29,.04h-1.19Z"/>
          <path class="cls-1" d="M67.19,13.19c-.1,0-.18-.03-.24-.1-.06-.06-.09-.14-.09-.23V6.82c0-.09,.03-.17,.09-.23,.06-.06,.14-.09,.24-.09h1.53c.1,0,.18,.03,.25,.09,.07,.06,.1,.14,.1,.23v.49c.22-.27,.52-.49,.89-.67s.81-.27,1.32-.27,.97,.11,1.37,.33c.4,.22,.71,.55,.93,.98,.23,.43,.34,.96,.34,1.6v3.59c0,.09-.03,.16-.09,.23-.06,.06-.14,.1-.24,.1h-1.68c-.09,0-.17-.03-.23-.1-.07-.06-.1-.14-.1-.23v-3.51c0-.4-.1-.71-.3-.93s-.5-.33-.89-.33c-.36,0-.66,.11-.87,.33-.22,.22-.33,.53-.33,.93v3.51c0,.09-.03,.16-.1,.23s-.14,.1-.23,.1h-1.67Z"/>
        </g>
        <g>
          <path class="cls-1" d="M27.82,19.01s-.05,0-.07-.03c-.02-.02-.03-.04-.03-.07v-2.64s0-.05,.03-.07c.02-.02,.04-.03,.07-.03h.21s.06,0,.08,.02c.02,.02,.03,.03,.03,.04l.88,1.63,.89-1.63s.02-.02,.03-.04c.02-.02,.04-.02,.07-.02h.21s.06,0,.07,.03c.02,.02,.03,.04,.03,.07v2.64s0,.05-.03,.07c-.02,.02-.04,.03-.07,.03h-.21s-.05,0-.07-.03c-.02-.02-.03-.04-.03-.07v-1.99l-.7,1.32s-.03,.05-.05,.06c-.02,.01-.05,.02-.08,.02h-.13s-.06,0-.08-.02c-.02-.01-.04-.04-.05-.06l-.7-1.32v1.99s0,.05-.03,.07c-.02,.02-.04,.03-.07,.03h-.21Z"/>
          <path class="cls-1" d="M31.88,19.05c-.21,0-.39-.04-.53-.12s-.25-.19-.33-.33c-.08-.14-.12-.3-.13-.47,0-.05,0-.1,0-.18s0-.13,0-.17c0-.18,.05-.34,.13-.48s.19-.25,.33-.32,.32-.12,.53-.12,.39,.04,.53,.12,.25,.19,.33,.32,.12,.3,.13,.48c0,.04,0,.1,0,.17s0,.13,0,.18c0,.18-.05,.34-.13,.47-.08,.14-.18,.25-.33,.33s-.32,.12-.53,.12Zm0-.31c.17,0,.31-.05,.41-.16,.1-.11,.16-.26,.17-.47,0-.04,0-.09,0-.15s0-.11,0-.15c0-.2-.06-.36-.17-.47-.1-.11-.24-.16-.41-.16s-.31,.05-.42,.16c-.1,.11-.16,.26-.17,.47,0,.04,0,.09,0,.15s0,.11,0,.15c0,.2,.06,.36,.17,.47s.24,.16,.42,.16Z"/>
          <path class="cls-1" d="M33.49,19.01s-.05,0-.07-.03c-.02-.02-.03-.04-.03-.07v-1.92s0-.05,.03-.07c.02-.02,.04-.03,.07-.03h.2s.05,0,.07,.03c.02,.02,.03,.04,.03,.07v.18c.07-.09,.16-.17,.27-.22,.11-.06,.25-.09,.42-.09s.34,.04,.46,.12,.22,.18,.29,.32,.1,.29,.1,.47v1.14s0,.05-.03,.07c-.02,.02-.04,.03-.07,.03h-.21s-.05,0-.07-.03c-.02-.02-.03-.04-.03-.07v-1.12c0-.19-.05-.34-.14-.44-.09-.11-.23-.16-.42-.16-.17,0-.31,.05-.42,.16-.1,.11-.16,.25-.16,.44v1.12s0,.05-.03,.07c-.02,.02-.04,.03-.07,.03h-.21Z"/>
          <path class="cls-1" d="M35.99,16.51s-.05,0-.07-.03c-.02-.02-.03-.04-.03-.07v-.22s0-.05,.03-.07c.02-.02,.04-.03,.07-.03h.26s.05,0,.07,.03c.02,.02,.03,.04,.03,.07v.22s0,.05-.03,.07c-.02,.02-.04,.03-.07,.03h-.26Zm.03,2.49s-.05,0-.07-.03c-.02-.02-.03-.04-.03-.07v-1.92s0-.05,.03-.07c.02-.02,.04-.03,.07-.03h.2s.05,0,.07,.03c.02,.02,.03,.04,.03,.07v1.92s0,.05-.03,.07c-.02,.02-.04,.03-.07,.03h-.2Z"/>
          <path class="cls-1" d="M37.79,19.01c-.16,0-.28-.03-.38-.09s-.17-.14-.21-.25-.07-.23-.07-.38v-1.07h-.33s-.05,0-.07-.03c-.02-.02-.03-.04-.03-.07v-.14s0-.05,.03-.07c.02-.02,.04-.03,.07-.03h.33v-.67s0-.05,.03-.07c.02-.02,.04-.03,.07-.03h.2s.05,0,.07,.03c.02,.02,.03,.04,.03,.07v.67h.52s.05,0,.07,.03c.02,.02,.03,.04,.03,.07v.14s0,.05-.03,.07c-.02,.02-.04,.03-.07,.03h-.52v1.04c0,.13,.02,.23,.07,.3,.04,.07,.12,.11,.24,.11h.26s.05,0,.07,.03c.02,.02,.03,.04,.03,.07v.15s0,.05-.03,.07c-.02,.02-.04,.03-.07,.03h-.29Z"/>
          <path class="cls-1" d="M39.47,19.05c-.21,0-.39-.04-.53-.12s-.25-.19-.33-.33c-.08-.14-.12-.3-.13-.47,0-.05,0-.1,0-.18s0-.13,0-.17c0-.18,.05-.34,.13-.48s.19-.25,.33-.32,.32-.12,.53-.12,.39,.04,.53,.12,.25,.19,.33,.32,.12,.3,.13,.48c0,.04,0,.1,0,.17s0,.13,0,.18c0,.18-.05,.34-.13,.47-.08,.14-.18,.25-.33,.33s-.32,.12-.53,.12Zm0-.31c.17,0,.31-.05,.41-.16,.1-.11,.16-.26,.17-.47,0-.04,0-.09,0-.15s0-.11,0-.15c0-.2-.06-.36-.17-.47-.1-.11-.24-.16-.41-.16s-.31,.05-.42,.16c-.1,.11-.16,.26-.17,.47,0,.04,0,.09,0,.15s0,.11,0,.15c0,.2,.06,.36,.17,.47s.24,.16,.42,.16Z"/>
          <path class="cls-1" d="M41.08,19.01s-.05,0-.07-.03c-.02-.02-.03-.04-.03-.07v-1.91s0-.05,.03-.07c.02-.02,.04-.03,.07-.03h.19s.05,0,.07,.03c.02,.02,.03,.04,.03,.07v.18c.06-.09,.13-.16,.23-.21,.1-.05,.22-.07,.36-.07h.16s.05,0,.07,.03c.02,.02,.03,.04,.03,.07v.17s0,.05-.03,.06c-.02,.02-.04,.02-.07,.02h-.25c-.15,0-.27,.04-.36,.13-.09,.08-.13,.2-.13,.35v1.19s0,.05-.03,.07c-.02,.02-.04,.03-.07,.03h-.21Z"/>
          <path class="cls-1" d="M43.4,19.05c-.29,0-.52-.09-.69-.26-.17-.17-.26-.4-.28-.7,0-.04,0-.08,0-.14s0-.1,0-.14c.01-.19,.06-.36,.14-.5,.08-.14,.19-.26,.33-.33,.14-.08,.31-.12,.5-.12,.21,0,.39,.04,.53,.13,.14,.09,.25,.21,.33,.37s.11,.34,.11,.56v.07s0,.05-.03,.07c-.02,.02-.04,.02-.07,.02h-1.45v.04c0,.11,.03,.21,.08,.31,.04,.1,.11,.17,.19,.23,.09,.06,.18,.09,.3,.09,.1,0,.18-.01,.25-.04,.07-.03,.12-.06,.16-.1,.04-.04,.07-.07,.08-.09,.03-.03,.04-.05,.06-.06,.01,0,.04-.01,.07-.01h.21s.05,0,.06,.02c.02,.01,.03,.04,.02,.06,0,.04-.03,.09-.07,.15-.04,.06-.1,.12-.18,.17s-.17,.1-.28,.14c-.11,.04-.24,.05-.38,.05Zm-.57-1.24h1.15c0-.13-.02-.24-.07-.34-.05-.09-.11-.17-.2-.22s-.19-.08-.31-.08-.22,.03-.31,.08c-.09,.06-.15,.13-.19,.22-.04,.09-.07,.2-.07,.32h0Z"/>
          <path class="cls-1" d="M45.77,19.05c-.21,0-.39-.04-.53-.12s-.25-.19-.33-.33c-.08-.14-.12-.3-.13-.47,0-.05,0-.1,0-.18s0-.13,0-.17c0-.18,.05-.34,.13-.48s.19-.25,.33-.32,.32-.12,.53-.12,.39,.04,.53,.12,.25,.19,.33,.32,.12,.3,.13,.48c0,.04,0,.1,0,.17s0,.13,0,.18c0,.18-.05,.34-.13,.47-.08,.14-.18,.25-.33,.33s-.32,.12-.53,.12Zm0-.31c.17,0,.31-.05,.41-.16,.1-.11,.16-.26,.17-.47,0-.04,0-.09,0-.15s0-.11,0-.15c0-.2-.06-.36-.17-.47-.1-.11-.24-.16-.41-.16s-.31,.05-.42,.16c-.1,.11-.16,.26-.17,.47,0,.04,0,.09,0,.15s0,.11,0,.15c0,.2,.06,.36,.17,.47s.24,.16,.42,.16Z"/>
          <path class="cls-1" d="M48.57,19.78s-.04,0-.06-.02-.03-.04-.03-.06c0-.01,0-.02,0-.03,0-.01,0-.02,.02-.04l.32-.74-.8-1.82s-.02-.06-.02-.07c0-.02,0-.04,.03-.06,.02-.02,.04-.02,.06-.02h.21s.05,0,.07,.02c.02,.01,.03,.03,.03,.05l.64,1.47,.65-1.47s.02-.03,.04-.05c.02-.01,.04-.02,.07-.02h.2s.05,0,.06,.02c.02,.02,.03,.04,.03,.06,0,.01,0,.04-.02,.07l-1.19,2.65s-.02,.03-.04,.05c-.02,.01-.04,.02-.07,.02h-.2Z"/>
          <path class="cls-1" d="M52.3,19.05c-.2,0-.37-.04-.51-.11s-.25-.18-.33-.32c-.08-.14-.12-.31-.13-.5,0-.04,0-.09,0-.16s0-.12,0-.16c0-.19,.05-.36,.13-.5,.08-.14,.19-.25,.33-.32s.31-.11,.51-.11c.16,0,.3,.02,.42,.06,.12,.04,.21,.1,.29,.17s.13,.14,.17,.22,.06,.15,.06,.22c0,.03,0,.05-.03,.06-.02,.02-.04,.02-.07,.02h-.2s-.05,0-.06-.02c-.01-.01-.03-.03-.04-.06-.05-.13-.12-.22-.21-.28s-.19-.08-.32-.08c-.17,0-.3,.05-.41,.15s-.16,.26-.17,.48c0,.1,0,.19,0,.28,0,.22,.06,.38,.17,.48,.1,.1,.24,.15,.41,.15,.13,0,.24-.03,.32-.08s.15-.15,.21-.28c.01-.03,.03-.05,.04-.06,.01-.01,.03-.02,.06-.02h.2s.05,0,.07,.03c.02,.02,.03,.04,.03,.07,0,.06-.02,.11-.04,.17-.02,.06-.06,.12-.11,.18-.05,.06-.11,.11-.18,.16-.07,.05-.16,.08-.26,.11-.1,.03-.22,.04-.35,.04Z"/>
          <path class="cls-1" d="M54.62,19.05c-.21,0-.39-.04-.53-.12s-.25-.19-.33-.33c-.08-.14-.12-.3-.13-.47,0-.05,0-.1,0-.18s0-.13,0-.17c0-.18,.05-.34,.13-.48s.19-.25,.33-.32,.32-.12,.53-.12,.39,.04,.53,.12,.25,.19,.33,.32,.12,.3,.13,.48c0,.04,0,.1,0,.17s0,.13,0,.18c0,.18-.05,.34-.13,.47-.08,.14-.18,.25-.33,.33s-.32,.12-.53,.12Zm0-.31c.17,0,.31-.05,.41-.16,.1-.11,.16-.26,.17-.47,0-.04,0-.09,0-.15s0-.11,0-.15c0-.2-.06-.36-.17-.47-.1-.11-.24-.16-.41-.16s-.31,.05-.42,.16c-.1,.11-.16,.26-.17,.47,0,.04,0,.09,0,.15s0,.11,0,.15c0,.2,.06,.36,.17,.47s.24,.16,.42,.16Z"/>
          <path class="cls-1" d="M56.23,19.01s-.05,0-.07-.03c-.02-.02-.03-.04-.03-.07v-1.92s0-.05,.03-.07c.02-.02,.04-.03,.07-.03h.2s.05,0,.07,.03c.02,.02,.03,.04,.03,.07v.18c.07-.09,.16-.17,.27-.22,.11-.06,.25-.09,.42-.09s.34,.04,.46,.12,.22,.18,.29,.32,.1,.29,.1,.47v1.14s0,.05-.03,.07c-.02,.02-.04,.03-.07,.03h-.21s-.05,0-.07-.03c-.02-.02-.03-.04-.03-.07v-1.12c0-.19-.05-.34-.14-.44-.09-.11-.23-.16-.42-.16-.17,0-.31,.05-.42,.16-.1,.11-.16,.25-.16,.44v1.12s0,.05-.03,.07c-.02,.02-.04,.03-.07,.03h-.21Z"/>
          <path class="cls-1" d="M59.49,19.01c-.16,0-.28-.03-.38-.09s-.17-.14-.21-.25-.07-.23-.07-.38v-1.07h-.33s-.05,0-.07-.03c-.02-.02-.03-.04-.03-.07v-.14s0-.05,.03-.07c.02-.02,.04-.03,.07-.03h.33v-.67s0-.05,.03-.07c.02-.02,.04-.03,.07-.03h.2s.05,0,.07,.03c.02,.02,.03,.04,.03,.07v.67h.52s.05,0,.07,.03c.02,.02,.03,.04,.03,.07v.14s0,.05-.03,.07c-.02,.02-.04,.03-.07,.03h-.52v1.04c0,.13,.02,.23,.07,.3,.04,.07,.12,.11,.24,.11h.26s.05,0,.07,.03c.02,.02,.03,.04,.03,.07v.15s0,.05-.03,.07c-.02,.02-.04,.03-.07,.03h-.29Z"/>
          <path class="cls-1" d="M60.37,19.01s-.05,0-.07-.03c-.02-.02-.03-.04-.03-.07v-1.91s0-.05,.03-.07c.02-.02,.04-.03,.07-.03h.19s.05,0,.07,.03c.02,.02,.03,.04,.03,.07v.18c.06-.09,.13-.16,.23-.21,.1-.05,.22-.07,.36-.07h.16s.05,0,.07,.03c.02,.02,.03,.04,.03,.07v.17s0,.05-.03,.06c-.02,.02-.04,.02-.07,.02h-.25c-.15,0-.27,.04-.36,.13-.09,.08-.13,.2-.13,.35v1.19s0,.05-.03,.07c-.02,.02-.04,.03-.07,.03h-.21Z"/>
          <path class="cls-1" d="M62.72,19.05c-.21,0-.39-.04-.53-.12s-.25-.19-.33-.33c-.08-.14-.12-.3-.13-.47,0-.05,0-.1,0-.18s0-.13,0-.17c0-.18,.05-.34,.13-.48s.19-.25,.33-.32,.32-.12,.53-.12,.39,.04,.53,.12,.25,.19,.33,.32,.12,.3,.13,.48c0,.04,0,.1,0,.17s0,.13,0,.18c0,.18-.05,.34-.13,.47-.08,.14-.18,.25-.33,.33s-.32,.12-.53,.12Zm0-.31c.17,0,.31-.05,.41-.16,.1-.11,.16-.26,.17-.47,0-.04,0-.09,0-.15s0-.11,0-.15c0-.2-.06-.36-.17-.47-.1-.11-.24-.16-.41-.16s-.31,.05-.42,.16c-.1,.11-.16,.26-.17,.47,0,.04,0,.09,0,.15s0,.11,0,.15c0,.2,.06,.36,.17,.47s.24,.16,.42,.16Z"/>
          <path class="cls-1" d="M64.33,19.01s-.05,0-.07-.03c-.02-.02-.03-.04-.03-.07v-2.68s0-.05,.03-.07c.02-.02,.04-.03,.07-.03h.2s.05,0,.07,.03c.02,.02,.03,.04,.03,.07v2.68s0,.05-.03,.07c-.02,.02-.04,.03-.07,.03h-.2Z"/>
          <path class="cls-1" d="M67.39,19.05c-.25,0-.46-.04-.63-.13-.17-.09-.3-.21-.39-.38-.09-.16-.14-.35-.15-.57,0-.12,0-.24,0-.38s0-.26,0-.38c.01-.22,.06-.41,.15-.57,.09-.16,.22-.28,.4-.37,.17-.09,.38-.13,.63-.13,.2,0,.37,.03,.51,.08s.26,.12,.36,.2c.09,.08,.16,.17,.21,.26,.05,.09,.07,.17,.07,.23,0,.02,0,.04-.02,.06-.02,.01-.04,.02-.07,.02h-.25s-.05,0-.06-.02c-.01-.01-.02-.03-.04-.06-.03-.07-.07-.14-.12-.21-.06-.07-.13-.12-.23-.17s-.22-.07-.37-.07c-.22,0-.4,.06-.54,.17-.14,.12-.21,.31-.22,.57,0,.24,0,.48,0,.72,.01,.27,.09,.46,.22,.58,.14,.12,.32,.18,.54,.18,.15,0,.28-.03,.4-.08,.12-.05,.21-.14,.27-.24,.07-.11,.1-.25,.1-.42v-.17h-.63s-.05,0-.07-.03c-.02-.02-.03-.04-.03-.07v-.13s0-.05,.03-.07c.02-.02,.04-.03,.07-.03h.95s.05,0,.07,.03c.02,.02,.03,.04,.03,.07v.39c0,.22-.05,.41-.14,.58-.09,.16-.23,.29-.41,.38-.18,.09-.39,.14-.64,.14Z"/>
          <path class="cls-1" d="M69.27,19.01s-.05,0-.07-.03c-.02-.02-.03-.04-.03-.07v-2.64s0-.05,.03-.07,.04-.03,.07-.03h1.06c.21,0,.39,.03,.54,.1,.15,.06,.27,.16,.35,.29,.08,.13,.13,.29,.13,.48s-.04,.35-.13,.48c-.08,.13-.2,.22-.35,.29-.15,.06-.33,.1-.54,.1h-.74v1.01s0,.05-.03,.07c-.02,.02-.04,.03-.07,.03h-.22Zm.32-1.44h.72c.21,0,.36-.04,.46-.13,.1-.09,.15-.22,.15-.39s-.05-.3-.15-.39c-.1-.09-.26-.14-.47-.14h-.72v1.05Z"/>
          <path class="cls-1" d="M72.81,19.05c-.24,0-.45-.04-.61-.11-.16-.07-.29-.17-.38-.28-.09-.11-.13-.24-.14-.36,0-.02,0-.04,.03-.06,.02-.02,.04-.03,.06-.03h.21s.06,0,.08,.02,.03,.04,.03,.06c.02,.06,.05,.13,.1,.19,.05,.06,.13,.12,.23,.16,.1,.04,.23,.06,.38,.06,.24,0,.42-.04,.53-.12,.11-.08,.17-.19,.17-.33,0-.09-.03-.17-.09-.23-.06-.06-.15-.11-.27-.16-.12-.05-.28-.1-.48-.15-.2-.06-.37-.12-.51-.19-.13-.07-.23-.15-.3-.25s-.1-.23-.1-.38c0-.15,.04-.28,.12-.39,.08-.11,.2-.21,.35-.27,.15-.07,.34-.1,.55-.1,.17,0,.32,.02,.45,.07,.13,.04,.24,.1,.32,.18,.09,.07,.15,.15,.2,.24s.07,.17,.07,.25c0,.02,0,.04-.02,.05-.01,.02-.04,.03-.07,.03h-.22s-.04,0-.06-.02c-.02-.01-.04-.03-.05-.06-.02-.11-.08-.2-.19-.28-.11-.08-.26-.11-.44-.11s-.33,.03-.44,.1c-.11,.07-.17,.17-.17,.32,0,.09,.03,.17,.08,.23,.05,.06,.14,.11,.25,.16s.26,.09,.45,.15c.22,.06,.41,.12,.55,.19,.14,.07,.25,.15,.32,.25,.07,.1,.1,.22,.1,.38,0,.17-.05,.31-.14,.43s-.22,.21-.39,.27c-.17,.06-.36,.09-.59,.09Z"/>
        </g>
      </g>
      <g>
        <path class="cls-1" d="M19.19,23.32H4.12c-2.27,0-4.12-1.85-4.12-4.12V4.12C0,1.85,1.85,0,4.12,0h15.07c2.27,0,4.12,1.85,4.12,4.12v15.07c0,2.27-1.85,4.12-4.12,4.12ZM4.12,.6C2.18,.6,.6,2.18,.6,4.12v15.07c0,1.94,1.58,3.52,3.52,3.52h15.07c1.94,0,3.52-1.58,3.52-3.52V4.12c0-1.94-1.58-3.52-3.52-3.52H4.12Z"/>
        <g>
          <path class="cls-1" d="M11.67,5.28H7.38c-.57,0-.86,.69-.45,1.1l4.82,4.82c.25,.25,.25,.66,0,.91l-4.82,4.82c-.4,.4-.12,1.1,.45,1.1h4.29c.34,0,.67-.14,.91-.38l5.54-5.54c.25-.25,.25-.66,0-.91l-5.54-5.54c-.24-.24-.57-.38-.91-.38Z"/>
          <g>
            <path class="cls-1" d="M17.59,16.6c.39,0,.72,.32,.72,.72,0,.39-.32,.72-.72,.72-.39,0-.72-.32-.71-.72,0-.39,.32-.71,.71-.71Zm0,.15c-.31,0-.57,.26-.57,.57,0,.31,.25,.57,.57,.57,.31,0,.57-.26,.57-.57,0-.31-.26-.57-.57-.57Z"/>
            <path class="cls-1" d="M17.78,17.37s.05,.1,.08,.15c.02,.03,.04,.07,.05,.1,.02,.03,0,.04-.03,.05-.04,0-.08,0-.11,0-.02,0-.03,0-.04-.02-.04-.07-.07-.15-.11-.22,0-.02-.02-.03-.04-.03-.02,0-.04,0-.06,0,0,.03,0,.06,0,.09,0,.05,0,.1,0,.15,0,.02-.01,.04-.04,.04-.03,0-.07,0-.1,0-.02,0-.03,0-.03-.03,0-.22,0-.45,0-.67,0-.02,0-.03,.03-.03,.1,0,.21,0,.31,0,.1,0,.19,.08,.21,.18,.03,.1-.02,.2-.1,.25,0,0-.01,0-.02,.01Zm-.26-.13c.06,0,.12,0,.18,0,.04,0,.07-.04,.07-.09,0-.04-.03-.08-.07-.08-.06,0-.12,0-.18,0v.17Z"/>
          </g>
        </g>
      </g>
    </g>
  </g>
</svg>